<?xml version="1.0" encoding="UTF-8" standalone="no"?>
<svg width="535px" height="287px" viewBox="0 0 535 287" version="1.1" xmlns="http://www.w3.org/2000/svg" xmlns:xlink="http://www.w3.org/1999/xlink">
    <!-- Generator: Sketch 49.3 (51167) - http://www.bohemiancoding.com/sketch -->
    <title>Group 4</title>
    <desc>Created with Sketch.</desc>
    <defs></defs>
    <g id="App" stroke="none" stroke-width="1" fill="none" fill-rule="evenodd">
        <g id="404-Error" transform="translate(-333.000000, -140.000000)">
            <g id="Group-4" transform="translate(333.000000, 141.000000)">
                <path d="M149.274317,147.460818 C157.910021,147.460818 165.312053,154.554432 165.312053,163.190137 C165.312053,172.134259 157.910021,179.227873 149.274317,179.227873 L136.012342,179.227873 L136.012342,209.452838 C136.012342,219.322214 127.993474,227.649501 118.124098,227.649501 C107.946303,227.649501 99.9274351,219.322214 99.9274351,209.452838 L99.9274351,179.227873 L20.3555886,179.227873 C9.25254029,179.227873 0,170.283751 0,158.872284 C0,154.86285 1.54209005,151.161834 3.39259811,148.077654 L78.3381744,32.7293185 C83.8896986,24.0936142 93.4506569,18.233672 104.553705,18.233672 C121.825114,18.233672 136.012342,32.4209005 136.012342,49.692309 L136.012342,147.460818 L149.274317,147.460818 Z M37.3185792,147.460818 L99.9274351,147.460818 L99.9274351,52.4680711 L37.3185792,147.460818 Z M184.742388,123.095795 C184.742388,71.2815697 209.415829,17 267.089996,17 C324.764164,17 349.437605,71.2815697 349.437605,123.095795 C349.437605,174.910021 324.764164,229.500009 267.089996,229.500009 C209.415829,229.500009 184.742388,174.910021 184.742388,123.095795 Z M312.735862,123.095795 C312.735862,83.9267081 300.707559,49.075473 267.089996,49.075473 C233.472433,49.075473 221.444131,83.9267081 221.444131,123.095795 C221.444131,162.264883 233.472433,197.424536 267.089996,197.424536 C300.707559,197.424536 312.735862,162.264883 312.735862,123.095795 Z M518.142256,147.460818 C526.77796,147.460818 534.179993,154.554432 534.179993,163.190137 C534.179993,172.134259 526.77796,179.227873 518.142256,179.227873 L504.880282,179.227873 L504.880282,209.452838 C504.880282,219.322214 496.861414,227.649501 486.992037,227.649501 C476.814243,227.649501 468.795375,219.322214 468.795375,209.452838 L468.795375,179.227873 L389.223528,179.227873 C378.12048,179.227873 368.86794,170.283751 368.86794,158.872284 C368.86794,154.86285 370.41003,151.161834 372.260538,148.077654 L447.206114,32.7293185 C452.757638,24.0936142 462.318596,18.233672 473.421645,18.233672 C490.693053,18.233672 504.880282,32.4209005 504.880282,49.692309 L504.880282,147.460818 L518.142256,147.460818 Z M406.186519,147.460818 L468.795375,147.460818 L468.795375,52.4680711 L406.186519,147.460818 Z" id="404" fill="#FFFFFF" opacity="0.0597014925"></path>
                <rect id="Rectangle-4" fill="#6F777D" x="17" y="284" width="500" height="2" rx="1"></rect>
                <path d="M198,249 L198,284" id="Fill-81" fill="#FFFFFF"></path>
                <path d="M198,249 L198,284" id="Stroke-83" stroke="#6F777D" stroke-width="2" stroke-linecap="round" stroke-linejoin="round"></path>
                <path d="M337,249 L337,284" id="Fill-85" fill="#FFFFFF"></path>
                <path d="M337,249 L337,284" id="Stroke-87" stroke="#6F777D" stroke-width="2" stroke-linecap="round" stroke-linejoin="round"></path>
                <path d="M208,285 L208,171" id="Fill-89" fill="#FFFFFF"></path>
                <path d="M208,285 L208,171" id="Stroke-91" stroke="#6F777D" stroke-width="2" stroke-linecap="round" stroke-linejoin="round"></path>
                <path d="M327,285 L327,171" id="Fill-93" fill="#FFFFFF"></path>
                <path d="M327,285 L327,171" id="Stroke-95" stroke="#6F777D" stroke-width="2" stroke-linecap="round" stroke-linejoin="round"></path>
                <polygon id="Fill-97" fill="#24292E" points="189 220 346 220 346 202 189 202"></polygon>
                <polygon id="Stroke-99" stroke="#6F777D" stroke-width="2" stroke-linecap="round" stroke-linejoin="round" points="189 220 346 220 346 202 189 202"></polygon>
                <polygon id="Fill-100" fill="#24292E" points="189 193 346 193 346 174 189 174"></polygon>
                <polygon id="Stroke-101" stroke="#6F777D" stroke-width="2" stroke-linecap="round" stroke-linejoin="round" points="189 193 346 193 346 174 189 174"></polygon>
                <polygon id="Fill-102" fill="#24292E" points="173 250 361 250 361 236 173 236"></polygon>
                <polygon id="Stroke-103" stroke="#6F777D" stroke-width="2" stroke-linecap="round" stroke-linejoin="round" points="173 250 361 250 361 236 173 236"></polygon>
                <g id="Group-2" transform="translate(147.000000, 0.000000)" fill="#24292E" stroke="#6F777D" stroke-width="2">
                    <path d="M60.5395311,100 L4.71278276,100 C0.191983438,100 -1.75650976,94.147541 1.94374194,91.5508197 C1.9953848,91.5147541 2.04784738,91.4786885 2.10030997,91.442623 C7.36706167,87.8221311 14.2790072,88.1508197 14.2790072,88.1508197 C14.2790072,88.1508197 15.2667794,68.5663934 33.8647658,68.5663934 C43.0596535,68.5663934 50.4904868,84.2836066 50.4904868,84.2836066 C50.4904868,84.2836066 62.9987147,84.2836066 65.0685277,94.1581967 C65.6956195,97.15 63.5962964,100 60.5395311,100 Z" id="Stroke-3" stroke-linecap="round" stroke-linejoin="round"></path>
                    <path d="M233.580189,77.1337587 C246.185965,77.1337587 240.288023,57.1468735 224.318084,61.920644 C223.434417,34.1681849 178.195274,13.8624472 159.489084,51.2944145 C154.200199,47.1091686 142.323982,55.0132669 144.953669,61.920644 C139.078679,62.4222833 134.456233,63.1009718 130.860907,64.0009718 C122.558703,66.0788407 124.201438,77.0403161 132.760216,76.9632669 L233.580189,77.1337587 Z" id="Fill-9"></path>
                    <path d="M25.9445952,38.7827869 L102.710473,38.7827869 C109.916701,38.7827869 109.58635,32.85 107.232092,30.7827869 C104.820452,28.6639344 100.052915,29.5237705 100.052915,29.5237705 C100.052915,29.5237705 98.633966,25.5327869 93.9631564,23.5901639 C89.8309081,21.8713115 85.5019251,22.6893443 85.5019251,22.6893443 C85.5019251,22.6893443 85.5019251,19.9508197 82.8566632,17.6827869 C80.2105816,15.4139344 76.6832925,15.6352459 76.6832925,15.6352459 C76.6832925,15.6352459 74.2577177,0.533606557 58.0533367,0.533606557 C41.8489558,0.533606557 39.9750578,14.7532787 39.9750578,14.7532787 C39.9750578,14.7532787 36.3371054,14.7532787 33.6910238,17.1786885 C31.0457619,19.6032787 30.7145918,22.3590164 30.7145918,22.3590164 C30.7145918,22.3590164 21.8672687,21.1672131 19.2506973,28.7983607 C17.6907551,33.3467213 20.8950714,38.7827869 25.9445952,38.7827869" id="Fill-13"></path>
                </g>
                <g id="Group-3" transform="translate(418.000000, 44.000000)" fill-rule="nonzero" stroke="#6F777D" stroke-width="2">
                    <path d="M6.41863313,29.4052819 L13.1209262,64.2161419 L17.8825028,64.2161419 C18.7758485,65.9737295 20.2456882,67.3417259 22.0895889,67.9703845 L21.8431487,105.287024 C19.5635769,106.469079 17.98812,108.83319 17.98812,111.591318 C17.98812,114.31403 19.5239705,116.651577 21.7595351,117.851341 L21.5086942,156.053415 C19.484364,156.943277 17.8913042,158.669874 17.2796044,160.905597 L12.7072587,160.905597 C10.9073652,160.905597 9.44632691,162.375418 9.44632691,164.186132 C9.44632691,165.996845 10.9073652,167.466667 12.7072587,167.466667 L37.4260901,167.466667 C39.2259836,167.466667 40.6870219,165.996845 40.6870219,164.186132 C40.6870219,162.375418 39.2259836,160.905597 37.4260901,160.905597 L32.8537444,160.905597 C32.2420446,158.669874 30.6489848,156.947704 28.6246547,156.053415 L28.3738138,117.851341 C30.6093784,116.656004 32.1452289,114.31403 32.1452289,111.591318 C32.1452289,108.83319 30.5697719,106.469079 28.2902001,105.287024 L28.0437599,67.9703845 C29.8876607,67.3461531 31.3575004,65.9781567 32.2508461,64.2161419 L37.0168234,64.2161419 L43.710315,29.4052819 C44.9337145,29.1396516 45.8666667,28.0948388 45.8666667,26.7888228 C45.8666667,25.2791569 44.6520686,24.0572572 43.1514238,24.0572572 L42.790565,24.0572572 L40.8322456,16.1768895 C40.4273796,14.5476899 38.9751427,13.4054793 37.3072707,13.4054793 L35.3181463,13.4054793 C34.4380028,10.4923996 32.3212576,8.22125995 29.632419,7.10118522 C29.8172492,5.80845075 30.4421511,4.51128911 31.581937,3.21412748 C30.6577863,1.37242358 28.3166044,0 25.5133473,0 L24.6200016,0 C21.8255458,0 19.4711619,1.37242358 18.5514119,3.21412748 C19.686797,4.51128911 20.3160997,5.80845075 20.5009298,7.10118522 C17.8076906,8.22125995 15.6953461,10.4968268 14.8152025,13.4054793 L12.8260781,13.4054793 C11.1582061,13.4054793 9.70596926,14.5476899 9.30110323,16.1768895 L7.34278385,24.05283 L6.981925,24.05283 C5.48128026,24.05283 4.26668217,25.2747297 4.26668217,26.7843956 C4.26228145,28.0948388 5.19523361,29.1352244 6.41863313,29.4052819 Z M10.3308712,31.2735489 L23.1809669,31.2735489 L23.1809669,60.7009667 L15.9989956,60.7009667 L10.3308712,31.2735489 Z M34.1343533,60.7053939 L26.9435805,60.7053939 L26.9435805,31.2735489 L39.7936762,31.2735489 L34.1343533,60.7053939 Z" id="Shape" fill="#24292E"></path>
                    <rect id="Rectangle-path" x="0" y="230.333333" width="49.0666667" height="10.6666667"></rect>
                    <path d="M40.6251922,219.920672 L37.8273478,171.666667 L12.3059855,171.666667 L9.50814112,219.920672 C6.54888266,220.348949 4.26666667,222.834721 4.26666667,225.872397 C4.26666667,225.978362 4.35634117,226.066667 4.46395056,226.066667 L45.6693828,226.066667 C45.7769922,226.066667 45.8666667,225.978362 45.8666667,225.872397 C45.8666667,222.834721 43.5844507,220.348949 40.6251922,219.920672 Z" id="Shape"></path>
                </g>
                <g id="Group-7" transform="translate(65.000000, 201.000000)">
                    <polygon id="Rectangle-20" fill="#24292E" points="1.51464844 5.21826172 26.1291504 5.21826172 26.1291504 1 36.432373 1 36.432373 5.21826172 60.2646484 5.21826172 60.2646484 10.1474609 55.1518555 10.1474609 54.4732008 22.0989854 59.25 22.0989854 59.25 25.6079102 54.4732008 25.6079102 51.1303711 80.9682617 47.1303711 83.7182617 13.2553711 83.7182617 9.13964844 80.3432617 5.59164448 25.6079102 1 25.6079102 1 21.8697323 5.59164448 21.8697323 4.8671875 10.1474609 1.51464844 10.1474609"></polygon>
                    <g id="Group-6" fill="#6F777D" fill-rule="nonzero">
                        <path d="M45.8888889,84 L14.1111111,84 C10.9333333,84 8.33333333,81.4979839 8.04444444,78.2600806 L4,11.1471774 L5.44444444,11 L9.48888889,77.9657258 C9.63333333,80.4677419 11.6555556,82.3810484 14.1111111,82.3810484 L45.8888889,82.3810484 C48.3444444,82.3810484 50.3666667,80.4677419 50.5111111,77.9657258 L54.5555556,11.1471774 L56,11.2943548 L51.9555556,78.2600806 C51.8111111,81.4979839 49.0666667,84 45.8888889,84 Z" id="Shape" stroke="#6F777D" stroke-width="0.5"></path>
                        <path d="M58.9666667,11 L2.03333333,11 C0.871428571,11 0,10.16 0,9.04 L0,5.96 C0,4.84 0.871428571,4 2.03333333,4 L58.9666667,4 C60.1285714,4 61,4.84 61,5.96 L61,9.04 C61,10.16 60.1285714,11 58.9666667,11 Z M2.03333333,5.4 C1.74285714,5.4 1.45238095,5.68 1.45238095,5.96 L1.45238095,9.04 C1.45238095,9.32 1.74285714,9.6 2.03333333,9.6 L58.9666667,9.6 C59.2571429,9.6 59.547619,9.32 59.547619,9.04 L59.547619,5.96 C59.547619,5.68 59.2571429,5.4 58.9666667,5.4 L2.03333333,5.4 Z" id="Shape" stroke="#6F777D" stroke-width="0.5"></path>
                        <path d="M6,26 L1.65,26 C0.75,26 0,25.3548387 0,24.5806452 L0,22.4193548 C0,21.6451613 0.75,21 1.65,21 L6,21 L6,22.2903226 L1.65,22.2903226 C1.65,22.2903226 1.5,22.2903226 1.5,22.4193548 L1.5,24.5806452 C1.5,24.5806452 1.5,24.7096774 1.65,24.7096774 L6,24.7096774 L6,26 Z" id="Shape"></path>
                        <path d="M60,26 L55.65,26 C54.75,26 54,25.3548387 54,24.5806452 L54,22.4193548 C54,21.6451613 54.75,21 55.65,21 L60,21 L60,22.2903226 L55.65,22.2903226 C55.65,22.2903226 55.5,22.2903226 55.5,22.4193548 L55.5,24.5806452 C55.5,24.5806452 55.5,24.7096774 55.65,24.7096774 L60,24.7096774 L60,26 Z" id="Shape" transform="translate(57.000000, 23.500000) scale(-1, 1) translate(-57.000000, -23.500000) "></path>
                        <rect id="Rectangle-path" stroke="#6F777D" stroke-width="0.5" x="19" y="27" width="2" height="42"></rect>
                        <rect id="Rectangle-path" stroke="#6F777D" stroke-width="0.5" x="26" y="27" width="2" height="42"></rect>
                        <rect id="Rectangle-path" stroke="#6F777D" stroke-width="0.5" x="33" y="27" width="2" height="42"></rect>
                        <rect id="Rectangle-path" stroke="#6F777D" stroke-width="0.5" x="40" y="27" width="2" height="42"></rect>
                        <rect id="Rectangle-path" x="5" y="16" width="50" height="2"></rect>
                        <path d="M37,4 L35.5,4 L35.5,1.33333333 L26.5,1.33333333 L26.5,4 L25,4 L25,1 C25,0.44771525 25.4477153,1.01453063e-16 26,0 L36,0 C36.5522847,-1.01453063e-16 37,0.44771525 37,1 L37,4 Z" id="Shape"></path>
                    </g>
                </g>
            </g>
        </g>
    </g>
</svg>