<?xml version="1.0" encoding="UTF-8" standalone="no"?>
<svg width="535px" height="269px" viewBox="0 0 535 269" version="1.1" xmlns="http://www.w3.org/2000/svg" xmlns:xlink="http://www.w3.org/1999/xlink">
    <!-- Generator: Sketch 49.3 (51167) - http://www.bohemiancoding.com/sketch -->
    <title>Group 3</title>
    <desc>Created with Sketch.</desc>
    <defs>
        <rect id="path-1" x="373" y="47" width="46" height="31" rx="15.5"></rect>
        <rect id="path-2" x="373" y="83" width="46" height="31" rx="15.5"></rect>
        <rect id="path-3" x="91.3513514" y="76.2162162" width="157.297297" height="110" rx="4"></rect>
        <rect id="path-4" x="101.081081" y="85.8108108" width="137.702703" height="78.9189189" rx="4"></rect>
        <rect id="path-5" x="272.567568" y="177.297297" width="133.648649" height="33.3783784" rx="6"></rect>
        <rect id="path-6" x="272.567568" y="141.837838" width="133.648649" height="33.3783784" rx="6"></rect>
        <rect id="path-7" x="272.567568" y="106.378378" width="133.648649" height="33.3783784" rx="6"></rect>
        <rect id="path-8" x="272.567568" y="70.9189189" width="133.648649" height="33.3783784" rx="6"></rect>
        <rect id="path-9" x="272.567568" y="35.4594595" width="133.648649" height="33.3783784" rx="6"></rect>
        <rect id="path-10" x="272.567568" y="0" width="133.648649" height="33.3783784" rx="6"></rect>
    </defs>
    <g id="App" stroke="none" stroke-width="1" fill="none" fill-rule="evenodd">
        <g id="500-Error" transform="translate(-333.000000, -158.000000)">
            <g id="Group-3" transform="translate(333.000000, 158.000000)">
                <path d="M5.89739678,192.441369 C2.48311443,189.647865 0,184.681636 0,179.715407 C0,170.403728 7.4493433,163.264774 16.4506331,163.264774 C20.1753048,163.264774 23.8999764,164.506331 26.6934802,166.679056 C39.4194416,176.611514 54.6285176,181.577743 72.3207079,181.577743 C98.3934095,181.577743 114.844043,165.437499 114.844043,145.262194 C114.844043,122.914164 98.7037988,108.325867 73.2518758,108.325867 C58.6635785,108.325867 46.2480063,112.050539 34.7636021,121.362218 C31.3493197,124.155722 27.0038695,125.707668 22.0376406,125.707668 C11.174015,125.707668 2.17272513,116.706378 2.17272513,105.842753 L2.17272513,22.3480299 C2.17272513,9.93245774 9.00128982,3.10389304 21.416862,3.10389304 L123.534943,3.10389304 C132.225844,3.10389304 139.675187,10.242847 139.675187,19.2441369 C139.675187,27.9350374 132.225844,35.0739914 123.534943,35.0739914 L38.4882737,35.0739914 L38.4882737,94.9791271 C48.4207315,85.0466694 65.4921432,76.9765475 85.3570587,76.9765475 C120.120661,76.9765475 151.46998,101.497303 151.46998,143.710248 C151.46998,186.854361 118.879104,213.858231 72.6310972,213.858231 C44.0752812,213.858231 22.6584192,206.098498 5.89739678,192.441369 Z M177.232293,106.773921 C177.232293,54.6285176 202.063437,0 260.106237,0 C318.149037,0 342.980181,54.6285176 342.980181,106.773921 C342.980181,158.919324 318.149037,213.858231 260.106237,213.858231 C202.063437,213.858231 177.232293,158.919324 177.232293,106.773921 Z M306.043854,106.773921 C306.043854,67.354479 293.938671,32.2804876 260.106237,32.2804876 C226.273803,32.2804876 214.16862,67.354479 214.16862,106.773921 C214.16862,146.193362 226.273803,181.577743 260.106237,181.577743 C293.938671,181.577743 306.043854,146.193362 306.043854,106.773921 Z M368.432104,106.773921 C368.432104,54.6285176 393.263249,0 451.306048,0 C509.348848,0 534.179993,54.6285176 534.179993,106.773921 C534.179993,158.919324 509.348848,213.858231 451.306048,213.858231 C393.263249,213.858231 368.432104,158.919324 368.432104,106.773921 Z M497.243665,106.773921 C497.243665,67.354479 485.138483,32.2804876 451.306048,32.2804876 C417.473614,32.2804876 405.368431,67.354479 405.368431,106.773921 C405.368431,146.193362 417.473614,181.577743 451.306048,181.577743 C485.138483,181.577743 497.243665,146.193362 497.243665,106.773921 Z" id="500" fill="#FFFFFF" opacity="0.06"></path>
                <g id="Group-2" transform="translate(17.000000, 56.000000)">
                    <rect id="Case" stroke="#6F777D" stroke-width="2" x="373" y="26" width="46" height="31" rx="15.5"></rect>
                    <g id="Case">
                        <use stroke="#24292E" stroke-width="6" xlink:href="#path-1"></use>
                        <use stroke="#6F777D" stroke-width="2" xlink:href="#path-1"></use>
                    </g>
                    <path d="M174,56.972282 L174,75.0249844" id="Line-2" stroke="#D6E1E5" stroke-width="2" stroke-linecap="square" stroke-dasharray="7,7,7,7"></path>
                    <rect id="Case" stroke="#6F777D" stroke-width="2" x="373" y="99" width="46" height="31" rx="15.5"></rect>
                    <rect id="Case" stroke="#6F777D" stroke-width="2" x="373" y="163" width="46" height="31" rx="15.5"></rect>
                    <g id="Case">
                        <use stroke="#24292E" stroke-width="6" xlink:href="#path-2"></use>
                        <use stroke="#6F777D" stroke-width="2" xlink:href="#path-2"></use>
                    </g>
                    <g id="Case">
                        <use fill="#24292E" fill-rule="evenodd" xlink:href="#path-3"></use>
                        <rect stroke="#6F777D" stroke-width="2" x="90.3513514" y="75.2162162" width="159.297297" height="112" rx="4"></rect>
                    </g>
                    <g id="Case">
                        <use fill="#24292E" fill-rule="evenodd" xlink:href="#path-4"></use>
                        <rect stroke="#6F777D" stroke-width="2" x="100.081081" y="84.8108108" width="139.702703" height="80.9189189" rx="4"></rect>
                    </g>
                    <path d="M158.355472,187.432432 L181.779663,187.432432 L183.382888,206.932432 L156.752247,206.932432 L158.355472,187.432432 Z" id="Case" stroke="#6F777D" stroke-width="2"></path>
                    <path d="M148,207 L148,210.67578 C148,211.227722 148.452951,211.68 149.009677,211.68 L191.071404,211.68 C191.629605,211.68 192.081081,211.229759 192.081081,210.67578 L192.081081,207 L148,207 Z" id="Keyboard" stroke="#6F777D" stroke-width="2" transform="translate(170.040541, 209.340000) scale(1, -1) translate(-170.040541, -209.340000) "></path>
                    <circle id="Oval-6" stroke="#6F777D" stroke-width="2" cx="170" cy="176.891892" r="2.83783784"></circle>
                    <rect id="Rectangle-4" fill="#6F777D" x="0" y="211" width="500" height="2" rx="1"></rect>
                    <path d="M132.837838,100.27027 C137.340527,100.27027 141.507193,101.395943 145.337838,103.647286 C149.168483,105.89863 152.209478,108.939625 154.460822,112.77027 C156.712165,116.600915 157.837838,120.767582 157.837838,125.27027 C157.837838,129.772959 156.712165,133.939625 154.460822,137.77027 C152.209478,141.600915 149.168483,144.641911 145.337838,146.893254 C141.507193,149.144598 137.340527,150.27027 132.837838,150.27027 C128.335149,150.27027 124.168483,149.144598 120.337838,146.893254 C116.507193,144.641911 113.466198,141.600915 111.214854,137.77027 C108.96351,133.939625 107.837838,129.772959 107.837838,125.27027 C107.837838,120.767582 108.96351,116.600915 111.214854,112.77027 C113.466198,108.939625 116.507193,105.89863 120.337838,103.647286 C124.168483,101.395943 128.335149,100.27027 132.837838,100.27027 Z M145.204776,131.890866 L138.551117,125.338021 L145.204776,118.785175 C145.406402,118.51634 145.507215,118.230704 145.507215,117.928265 C145.507215,117.625826 145.406402,117.340189 145.204776,117.071354 L141.172255,113.038834 C140.970629,112.837208 140.701794,112.736395 140.365751,112.736395 C140.029708,112.736395 139.727269,112.837208 139.458434,113.038834 L132.905589,119.692492 L126.352743,113.038834 C126.083908,112.837208 125.798271,112.736395 125.495832,112.736395 C125.193393,112.736395 124.907757,112.837208 124.638922,113.038834 L120.606402,117.071354 C120.404776,117.27298 120.303962,117.541815 120.303962,117.877858 C120.303962,118.213901 120.404776,118.51634 120.606402,118.785175 L127.26006,125.338021 L120.606402,131.890866 C120.404776,132.159702 120.303962,132.445338 120.303962,132.747777 C120.303962,133.050216 120.404776,133.335852 120.606402,133.604688 L124.638922,137.637208 C124.840548,137.838834 125.109383,137.939647 125.445426,137.939647 C125.781469,137.939647 126.083908,137.838834 126.352743,137.637208 L132.905589,130.983549 L139.458434,137.637208 C139.727269,137.838834 140.012906,137.939647 140.315345,137.939647 C140.617784,137.939647 140.90342,137.838834 141.172255,137.637208 L145.204776,133.604688 C145.406402,133.403062 145.507215,133.134226 145.507215,132.798184 C145.507215,132.462141 145.406402,132.159702 145.204776,131.890866 Z" id="times-circle" fill="#FF5A5F"></path>
                    <g id="Case">
                        <use fill="#24292E" fill-rule="evenodd" xlink:href="#path-5"></use>
                        <rect stroke="#6F777D" stroke-width="2" x="271.567568" y="176.297297" width="135.648649" height="35.3783784" rx="6"></rect>
                    </g>
                    <g id="Case">
                        <use fill="#24292E" fill-rule="evenodd" xlink:href="#path-6"></use>
                        <rect stroke="#6F777D" stroke-width="2" x="271.567568" y="140.837838" width="135.648649" height="35.3783784" rx="6"></rect>
                    </g>
                    <g id="Case">
                        <use fill="#24292E" fill-rule="evenodd" xlink:href="#path-7"></use>
                        <rect stroke="#6F777D" stroke-width="2" x="271.567568" y="105.378378" width="135.648649" height="35.3783784" rx="6"></rect>
                    </g>
                    <g id="Case">
                        <use fill="#24292E" fill-rule="evenodd" xlink:href="#path-8"></use>
                        <rect stroke="#6F777D" stroke-width="2" x="271.567568" y="69.9189189" width="135.648649" height="35.3783784" rx="6"></rect>
                    </g>
                    <g id="Case">
                        <use fill="#24292E" fill-rule="evenodd" xlink:href="#path-9"></use>
                        <rect stroke="#6F777D" stroke-width="2" x="271.567568" y="34.4594595" width="135.648649" height="35.3783784" rx="6"></rect>
                    </g>
                    <circle id="Oval-4" fill="#D6E1E5" cx="290.810811" cy="52.2162162" r="5.94594595"></circle>
                    <circle id="Oval-4" fill="#D6E1E5" cx="290.810811" cy="87.6756757" r="5.94594595"></circle>
                    <circle id="Oval-4" fill="#D6E1E5" cx="290.810811" cy="123.135135" r="5.94594595"></circle>
                    <circle id="Oval-4" fill="#FF5A5F" cx="290.810811" cy="158.594595" r="5.94594595"></circle>
                    <circle id="Oval-4" fill="#FAD46B" cx="313.513514" cy="158.594595" r="5.94594595"></circle>
                    <circle id="Oval-4" fill="#D6E1E5" cx="290.810811" cy="194.054054" r="5.94594595"></circle>
                    <rect id="Rectangle-11" fill="#D6E1E5" x="166.486486" y="100.540541" width="20.1351351" height="2" rx="1"></rect>
                    <rect id="Rectangle-11" fill="#D6E1E5" x="189.594595" y="100.540541" width="34.5945946" height="2" rx="1"></rect>
                    <rect id="Rectangle-11" fill="#D6E1E5" x="166.486486" y="112.027027" width="51.3513514" height="2" rx="1"></rect>
                    <rect id="Rectangle-11" fill="#D6E1E5" x="166.486486" y="123.648649" width="45.9459459" height="2" rx="1"></rect>
                    <rect id="Rectangle-11" fill="#D6E1E5" x="166.486486" y="135.135135" width="45.9459459" height="2" rx="1"></rect>
                    <rect id="Rectangle-11" fill="#D6E1E5" x="166.486486" y="146.621622" width="27.027027" height="2" rx="1"></rect>
                    <rect id="Rectangle-11" fill="#D6E1E5" x="196.486486" y="146.621622" width="11.4864865" height="2" rx="1"></rect>
                    <rect id="Rectangle-18" fill="#D6E1E5" opacity="0.4" x="347.702703" y="45.0540541" width="3.51351351" height="14.3243243" rx="1.75675676"></rect>
                    <rect id="Rectangle-18" fill="#D6E1E5" opacity="0.4" x="337.027027" y="45.0540541" width="3.51351351" height="14.3243243" rx="1.75675676"></rect>
                    <g id="Case">
                        <use fill="#24292E" fill-rule="evenodd" xlink:href="#path-10"></use>
                        <rect stroke="#6F777D" stroke-width="2" x="271.567568" y="-1" width="135.648649" height="35.3783784" rx="6"></rect>
                    </g>
                    <rect id="Rectangle-18" fill="#D6E1E5" x="358.378378" y="45.0540541" width="3.51351351" height="14.3243243" rx="1.75675676"></rect>
                    <rect id="Rectangle-18" fill="#D6E1E5" x="369.054054" y="45.0540541" width="3.51351351" height="14.3243243" rx="1.75675676"></rect>
                    <rect id="Rectangle-18" fill="#D6E1E5" opacity="0.4" x="379.72973" y="45.0540541" width="3.51351351" height="14.3243243" rx="1.75675676"></rect>
                    <rect id="Rectangle-18" fill="#D6E1E5" x="390.405405" y="45.0540541" width="3.51351351" height="14.3243243" rx="1.75675676"></rect>
                    <rect id="Rectangle-18" fill="#D6E1E5" x="347.702703" y="115.972973" width="3.51351351" height="14.3243243" rx="1.75675676"></rect>
                    <rect id="Rectangle-18" fill="#D6E1E5" opacity="0.4" x="337.027027" y="115.972973" width="3.51351351" height="14.3243243" rx="1.75675676"></rect>
                    <rect id="Rectangle-18" fill="#D6E1E5" opacity="0.4" x="358.378378" y="115.972973" width="3.51351351" height="14.3243243" rx="1.75675676"></rect>
                    <rect id="Rectangle-18" fill="#D6E1E5" opacity="0.4" x="369.054054" y="115.972973" width="3.51351351" height="14.3243243" rx="1.75675676"></rect>
                    <rect id="Rectangle-18" fill="#D6E1E5" x="379.72973" y="115.972973" width="3.51351351" height="14.3243243" rx="1.75675676"></rect>
                    <rect id="Rectangle-18" fill="#D6E1E5" opacity="0.4" x="390.405405" y="115.972973" width="3.51351351" height="14.3243243" rx="1.75675676"></rect>
                    <rect id="Rectangle-18" fill="#D6E1E5" x="347.702703" y="186.891892" width="3.51351351" height="14.3243243" rx="1.75675676"></rect>
                    <rect id="Rectangle-18" fill="#D6E1E5" opacity="0.4" x="337.027027" y="186.891892" width="3.51351351" height="14.3243243" rx="1.75675676"></rect>
                    <rect id="Rectangle-18" fill="#D6E1E5" x="358.378378" y="186.891892" width="3.51351351" height="14.3243243" rx="1.75675676"></rect>
                    <rect id="Rectangle-18" fill="#D6E1E5" opacity="0.4" x="369.054054" y="186.891892" width="3.51351351" height="14.3243243" rx="1.75675676"></rect>
                    <rect id="Rectangle-18" fill="#D6E1E5" x="379.72973" y="186.891892" width="3.51351351" height="14.3243243" rx="1.75675676"></rect>
                    <rect id="Rectangle-18" fill="#D6E1E5" opacity="0.4" x="390.405405" y="186.891892" width="3.51351351" height="14.3243243" rx="1.75675676"></rect>
                    <rect id="Rectangle-18" fill="#D6E1E5" opacity="0.4" x="347.702703" y="151.432432" width="3.51351351" height="14.3243243" rx="1.75675676"></rect>
                    <rect id="Rectangle-18" fill="#D6E1E5" opacity="0.4" x="358.378378" y="151.432432" width="3.51351351" height="14.3243243" rx="1.75675676"></rect>
                    <rect id="Rectangle-18" fill="#D6E1E5" opacity="0.4" x="369.054054" y="151.432432" width="3.51351351" height="14.3243243" rx="1.75675676"></rect>
                    <rect id="Rectangle-18" fill="#D6E1E5" x="379.72973" y="151.432432" width="3.51351351" height="14.3243243" rx="1.75675676"></rect>
                    <rect id="Rectangle-18" fill="#D6E1E5" x="390.405405" y="151.432432" width="3.51351351" height="14.3243243" rx="1.75675676"></rect>
                    <rect id="Rectangle-18" fill="#D6E1E5" x="347.702703" y="80.5135135" width="3.51351351" height="14.3243243" rx="1.75675676"></rect>
                    <rect id="Rectangle-18" fill="#D6E1E5" opacity="0.4" x="358.378378" y="80.5135135" width="3.51351351" height="14.3243243" rx="1.75675676"></rect>
                    <rect id="Rectangle-18" fill="#D6E1E5" opacity="0.4" x="369.054054" y="80.5135135" width="3.51351351" height="14.3243243" rx="1.75675676"></rect>
                    <rect id="Rectangle-18" fill="#D6E1E5" x="379.72973" y="80.5135135" width="3.51351351" height="14.3243243" rx="1.75675676"></rect>
                    <rect id="Rectangle-18" fill="#D6E1E5" opacity="0.4" x="390.405405" y="80.5135135" width="3.51351351" height="14.3243243" rx="1.75675676"></rect>
                    <path d="M176.55823,16.3112086 L191.445694,31.198673 C193.007792,32.7607702 193.007792,35.2934301 191.445694,36.8555273 L176.55823,51.7429916 C174.996133,53.3050888 172.463473,53.3050888 170.901376,51.7429916 L156.013911,36.8555273 C154.451814,35.2934301 154.451814,32.7607702 156.013911,31.198673 L170.901376,16.3112086 C172.463473,14.7491114 174.996133,14.7491114 176.55823,16.3112086 Z M177.690951,42.6208501 C177.690951,43.6950689 177.308465,44.614665 176.543491,45.3796392 C175.778516,46.1446134 174.85892,46.5271001 173.784701,46.5271001 C172.710483,46.5271001 171.790887,46.1446134 171.025912,45.3796392 C170.260938,44.614665 169.878451,43.6950689 169.878451,42.6208501 C169.878451,41.5466314 170.260938,40.6270353 171.025912,39.8620611 C171.790887,39.0970869 172.710483,38.7146001 173.784701,38.7146001 C174.85892,38.7146001 175.778516,39.0970869 176.543491,39.8620611 C177.308465,40.6270353 177.690951,41.5466314 177.690951,42.6208501 Z M170.317905,22.7478033 C170.317905,22.4222822 170.431837,22.1374517 170.659701,21.8933111 C170.887566,21.6491704 171.164259,21.5271001 171.48978,21.5271001 L176.079623,21.5271001 C176.405144,21.5271001 176.681837,21.6491704 176.909701,21.8933111 C177.137566,22.1374517 177.251498,22.4222822 177.251498,22.7478033 L176.567905,36.0290533 C176.567905,36.3545743 176.453973,36.623129 176.226108,36.8347173 C175.998243,37.0463056 175.721551,37.1521001 175.39603,37.1521001 L172.173373,37.1521001 C171.847852,37.1521001 171.57116,37.0463056 171.343295,36.8347173 C171.11543,36.623129 171.001498,36.3545743 171.001498,36.0290533 L170.317905,22.7478033 Z" id="Combined-Shape" fill="#FAD46B"></path>
                    <rect id="Rectangle-11" fill="#FF5A5F" x="71.8108108" y="77.2162162" width="11.4864865" height="3.51351351" rx="1.75675676"></rect>
                    <rect id="Rectangle-11" fill="#FF5A5F" transform="translate(91.135135, 63.094595) rotate(90.000000) translate(-91.135135, -63.094595) " x="85.3918919" y="61.3378378" width="11.4864865" height="3.51351351" rx="1.75675676"></rect>
                    <rect id="Rectangle-11" fill="#FF5A5F" transform="translate(81.303301, 67.924922) rotate(45.000000) translate(-81.303301, -67.924922) " x="75.5600576" y="66.1681657" width="11.4864865" height="3.51351351" rx="1.75675676"></rect>
                    <circle id="Oval-4" fill="#D6E1E5" cx="290.810811" cy="16.7567568" r="5.94594595"></circle>
                    <rect id="Rectangle-18" fill="#D6E1E5" x="347.702703" y="9.59459459" width="3.51351351" height="14.3243243" rx="1.75675676"></rect>
                    <rect id="Rectangle-18" fill="#D6E1E5" opacity="0.4" x="358.378378" y="9.59459459" width="3.51351351" height="14.3243243" rx="1.75675676"></rect>
                    <rect id="Rectangle-18" fill="#D6E1E5" opacity="0.4" x="369.054054" y="9.59459459" width="3.51351351" height="14.3243243" rx="1.75675676"></rect>
                    <rect id="Rectangle-18" fill="#D6E1E5" x="379.72973" y="9.59459459" width="3.51351351" height="14.3243243" rx="1.75675676"></rect>
                    <rect id="Rectangle-18" fill="#D6E1E5" opacity="0.4" x="390.405405" y="9.59459459" width="3.51351351" height="14.3243243" rx="1.75675676"></rect>
                    <path d="M196.5,34.5 L269.001724,34.5" id="Line-2" stroke="#D6E1E5" stroke-width="2" stroke-linecap="square" stroke-dasharray="7,7,7,7"></path>
                </g>
            </g>
        </g>
    </g>
</svg>