<?xml version="1.0" encoding="utf-8"?>
<!-- Generator: Adobe Illustrator 23.0.0, SVG Export Plug-In . SVG Version: 6.00 Build 0)  -->
<svg version="1.1" id="Camada_1" xmlns="http://www.w3.org/2000/svg" xmlns:xlink="http://www.w3.org/1999/xlink" x="0px" y="0px"
	 viewBox="0 0 1000 397.6" style="enable-background:new 0 0 1000 397.6;" xml:space="preserve">
<style type="text/css">
	.st0{fill-rule:evenodd;clip-rule:evenodd;fill:#001E61;}
</style>
<path class="st0" d="M931.7,168.8h-24.2l-2,8.9h26.2c24,0,32,6.5,32,25.8v9.3c-5.9-6.1-16.4-9.2-31.3-9.2
	c-23.7,0-35.2,10.3-35.2,31.4v1.5c0,19.8,11.3,29.8,33.7,29.8h6c23.7,0,35.7-10,35.7-29.8v-33.1
	C972.7,178.9,960.8,168.8,931.7,168.8z M963.7,237.9c0,14.2-7.6,19.7-27,19.7H933c-18.8,0-26.8-6.3-26.8-21v-1.5
	c0-16,7.6-22.8,25.5-22.8h1.5c21.4,0,30.5,6.6,30.5,22C963.7,234.3,963.7,237.9,963.7,237.9z M310.7,186.2l4.8-23.7h-40.9v-32.3
	l-28.7,4.4v96.6c0,33.4,12.8,43.3,47.8,43.3h15.3l4.8-23.5h-18c-15.9,0-21.1-4-21.1-21.8v-43.1C274.5,186.2,310.7,186.2,310.7,186.2
	z M113.2,119v103.8c0,38.5,17.4,54.5,55.2,54.5c39.3,0,56.7-15.6,56.7-54.3v-9.9c0-36.4-16.1-54.1-51.3-54.1
	c-11.2,0-23.4,2.3-31.6,8.9v-53.5L113.2,119L113.2,119z M169.5,182.2c19.9,0,26.9,8,26.9,31.9v8.9c0,23.3-7,31.3-27.3,31.3
	s-27.3-8-27.3-31.5v-12C141.8,189.4,148.8,182.2,169.5,182.2L169.5,182.2z M380.2,159c-37.8,0-55.2,16.3-55.2,53.5v5.7
	c0,35.3,15.1,52.4,50.7,52.4c11.4,0,22.8-2.1,30.8-8.7v4.2c0,19.9-8.5,26.4-28.3,26.4h-11.9c-6.8,0.1-9.9,1.4-14,8.2l0,0
	c-34.1,55.2-93.3,88.9-157.8,88.9C91.5,389.6,7.8,304,7.8,198.8C7.8,93.6,91.5,8,194.5,8c72.3,0,138.1,42.8,168.9,109.4h8.6
	C340.5,46,271,0,194.5,0C87.2,0,0,89.2,0,198.8c0,109.6,87.2,198.8,194.5,198.8c63.1,0,121.2-30.9,157.5-82.2h27.8
	c36.6,0,55.4-14.2,55.4-50.3v-54.5C435.2,174.6,417.2,159,380.2,159L380.2,159z M406.7,221.7c0,19.9-6.8,26-26.5,26
	c-22.1,0-26.5-7.8-26.5-30.9v-3.6c0-22.8,3.9-31.1,26.5-31.1c22.1,0,26.5,8,26.5,31.3L406.7,221.7L406.7,221.7z M991.1,266.4h8.9
	V132.2h-8.9L991.1,266.4L991.1,266.4z M790.1,177.7l2-8.9h-39.9v-25.3l-9.2,1.7V232c0,24.7,9.1,33.9,33.4,33.9h13.2l1.7-8.9h-14.8
	c-18.4,0-24.3-6-24.3-24.6v-54.8L790.1,177.7L790.1,177.7z M872.7,227.9c0,22.9-7,30.2-28.8,30.2c-21.1,0-28.3-7.6-28.3-30.2v-59.1
	h-9.2v59.1c0,28.1,10.5,39.1,37.4,39.1c26.8,0,37.7-11.3,37.7-39.1v-59.1h-8.9V227.9z M670.9,221.5v-8.2c0-26.3,8.8-35.6,33.5-35.6
	h20.9l2-8.9h-22.9c-29.5,0-42.7,13.7-42.7,44.4v8.2c0,30.7,13.2,44.4,42.7,44.4h21.2l2-8.9h-23.2
	C680.3,257.1,670.9,247.1,670.9,221.5L670.9,221.5z M604.8,168.8h-24.2l-2,8.9h26.2c23.8,0,31.8,6.5,31.8,25.8v9.3
	c-5.9-6.1-16.4-9.2-31.3-9.2c-23.7,0-35.2,10.3-35.2,31.4v1.5c0,19.8,11.4,29.8,33.9,29.8h6c23.5,0,35.4-10,35.4-29.8v-33.1
	C645.5,178.9,633.8,168.8,604.8,168.8L604.8,168.8z M636.6,237.9c0,14.3-7.3,19.7-26.8,19.7h-3.8c-18.9,0-27-6.3-27-21v-1.5
	c0-16,7.6-22.8,25.5-22.8h1.5c21.4,0,30.5,6.6,30.5,22C636.6,234.3,636.6,237.9,636.6,237.9z M515,167.3c-28.3,0-41.5,14.3-41.5,45
	v83.4h8.9v-42.8c6.5,8.6,18.5,13.6,33,13.6c28.2,0,40.7-13.9,40.7-45V212C556.2,181.1,543.5,167.3,515,167.3L515,167.3z
	 M547.1,221.5c0,26.3-8.5,36.1-31.5,36.1c-21.8,0-32.8-10.8-32.8-32.2v-13.1c0-25.6,9.4-36.1,32.3-36.1c23.1,0,32,10,32,35.8
	L547.1,221.5L547.1,221.5z"/>
</svg>
