<svg width="180" height="25" viewBox="0 0 180 25" fill="none" xmlns="http://www.w3.org/2000/svg">
<path d="M7.94528 24.9572C3.34275 24.9572 0.251225 22.4084 0 19.0656H5.2123C5.31203 19.6787 5.64394 20.2299 6.13918 20.6048C6.63442 20.9797 7.25498 21.1495 7.87211 21.0791C9.34653 21.0791 9.92093 20.4693 9.92093 19.6766C9.92093 16.9083 0.537816 18.9217 0.537816 12.5948C0.537816 9.64713 3.05372 7.27393 7.54771 7.27393C12.0417 7.27393 14.4503 9.75447 14.8101 13.1277H9.92215C9.88499 12.8348 9.79036 12.5521 9.64368 12.2958C9.497 12.0396 9.30117 11.8148 9.06742 11.6344C8.83366 11.4541 8.56659 11.3216 8.28153 11.2447C7.99646 11.1678 7.69901 11.1479 7.40625 11.1862C5.93183 11.1862 5.50133 11.6899 5.50133 12.5167C5.50133 15.2485 14.8125 13.3082 14.9198 19.7425C14.9198 22.7267 12.26 24.9865 7.94528 24.9865" fill="#383E42"/>
<path d="M41.846 15.3582C41.8704 14.9088 41.803 14.4591 41.6478 14.0366C41.4926 13.6141 41.253 13.2276 40.9434 12.9008C40.6339 12.574 40.261 12.3138 39.8476 12.1359C39.4341 11.958 38.9887 11.8663 38.5386 11.8663C38.0885 11.8663 37.6431 11.958 37.2297 12.1359C36.8162 12.3138 36.4433 12.574 36.1338 12.9008C35.8243 13.2276 35.5846 13.6141 35.4294 14.0366C35.2742 14.4591 35.2068 14.9088 35.2312 15.3582V24.7048H30.0189V15.3582C30.0433 14.9088 29.9759 14.4591 29.8207 14.0366C29.6655 13.6141 29.4259 13.2276 29.1164 12.9008C28.8068 12.574 28.434 12.3138 28.0205 12.1359C27.607 11.958 27.1616 11.8663 26.7115 11.8663C26.2614 11.8663 25.8161 11.958 25.4026 12.1359C24.9891 12.3138 24.6162 12.574 24.3067 12.9008C23.9972 13.2276 23.7575 13.6141 23.6024 14.0366C23.4472 14.4591 23.3797 14.9088 23.4042 15.3582V24.7048H18.1553V7.48491H23.3993V9.64227C23.9885 8.87684 24.7537 8.26478 25.6298 7.85802C26.506 7.45125 27.4673 7.26177 28.4323 7.30564C29.5999 7.29604 30.7505 7.58499 31.775 8.14505C32.7995 8.70512 33.6639 9.5177 34.2861 10.5057C34.9083 9.5327 35.7635 8.73044 36.7742 8.17163C37.7849 7.61282 38.9191 7.31515 40.074 7.30564C44.3156 7.30564 47.0839 10.0374 47.0839 14.6399V24.706H41.8399L41.846 15.3582Z" fill="#383E42"/>
<path d="M57.3402 7.27395C58.3845 7.22552 59.4234 7.44845 60.3559 7.921C61.2884 8.39354 62.0826 9.09959 62.661 9.97035V7.53127H67.9453V24.7511H62.661V22.2706C62.0793 23.1381 61.2845 23.8417 60.3528 24.3138C59.4211 24.786 58.3838 25.0109 57.3402 24.967C53.134 24.967 49.7913 21.5157 49.7913 16.0875C49.7913 10.6594 53.1706 7.28004 57.3768 7.28004L57.3402 7.27395ZM58.9232 11.8814C58.3883 11.8868 57.8604 12.0038 57.3734 12.2251C56.8864 12.4463 56.451 12.7669 56.095 13.1662C55.7391 13.5656 55.4705 14.0348 55.3065 14.544C55.1425 15.0531 55.0867 15.5909 55.1426 16.1229C55.1426 18.8913 56.9402 20.401 58.9232 20.401C59.4571 20.3925 59.9834 20.2733 60.4689 20.051C60.9544 19.8287 61.3885 19.5082 61.7438 19.1095C62.0991 18.7109 62.3679 18.2429 62.5331 17.7352C62.6983 17.2274 62.7564 16.6909 62.7037 16.1595C62.7563 15.622 62.6977 15.0795 62.5314 14.5657C62.3651 14.0519 62.0947 13.5779 61.7371 13.1732C61.3796 12.7685 60.9425 12.4418 60.4531 12.2134C59.9637 11.9851 59.4325 11.86 58.8927 11.846" fill="#383E42"/>
<path d="M77.0406 24.7096H71.7563V7.48977H77.0406V10.3654C77.6051 9.43921 78.3967 8.67238 79.3404 8.13757C80.2841 7.60277 81.3487 7.31766 82.4334 7.30927V12.9191H80.9955C78.515 12.9191 77.0406 13.7814 77.0406 16.7302V24.7096Z" fill="#383E42"/>
<path d="M87.0346 11.8752H84.9492V7.48491H87.0346V3.31897H92.3189V7.52514H95.7702V11.9155H92.3189V18.8181C92.3189 19.8242 92.7506 20.2559 93.9372 20.2559H95.8031V24.7133H93.1067C89.5115 24.7133 87.031 23.2035 87.031 18.7461L87.0346 11.8752Z" fill="#383E42"/>
<path d="M109.289 7.27395C113.531 7.27395 116.874 10.6533 116.874 16.0814C116.874 21.5096 113.495 24.9609 109.289 24.9609C108.249 25.0067 107.214 24.7864 106.283 24.321C105.352 23.8556 104.555 23.1604 103.968 22.3011V24.7097H98.7239V1.88116H104.008V9.9301C104.59 9.06315 105.385 8.36004 106.317 7.88796C107.248 7.41589 108.285 7.19063 109.329 7.2337L109.289 7.27395ZM107.711 11.835C106.667 11.9513 105.703 12.4482 105.002 13.2309C104.302 14.0135 103.915 15.0269 103.915 16.0772C103.915 17.1274 104.302 18.1408 105.002 18.9235C105.703 19.7061 106.667 20.2031 107.711 20.3193C108.248 20.3069 108.777 20.1841 109.264 19.9586C109.752 19.7331 110.188 19.4096 110.546 19.0084C110.903 18.6072 111.174 18.1367 111.342 17.6262C111.51 17.1158 111.571 16.5763 111.522 16.0412C111.574 15.5074 111.514 14.9687 111.347 14.4592C111.18 13.9497 110.908 13.4805 110.55 13.0816C110.191 12.6827 109.754 12.3627 109.265 12.142C108.776 11.9213 108.247 11.8047 107.711 11.7997" fill="#383E42"/>
<path d="M124.926 24.7096H119.641V7.48977H124.926V10.3654C125.49 9.43913 126.282 8.67224 127.225 8.13742C128.169 7.60261 129.234 7.31755 130.318 7.30927V12.9191H128.881C126.4 12.9191 124.926 13.7814 124.926 16.7302V24.7096Z" fill="#383E42"/>
<path d="M139.414 7.27395C140.458 7.22552 141.497 7.44845 142.43 7.921C143.362 8.39354 144.156 9.09959 144.735 9.97035V7.53127H150.019V24.7511H144.698V22.2706C144.116 23.1381 143.322 23.8417 142.39 24.3138C141.458 24.786 140.421 25.0109 139.377 24.967C135.171 24.967 131.828 21.5157 131.828 16.0875C131.828 10.6594 135.208 7.28004 139.414 7.28004V7.27395ZM140.924 11.846C140.389 11.8514 139.861 11.9685 139.374 12.1897C138.887 12.411 138.451 12.7315 138.096 13.1309C137.74 13.5302 137.471 13.9995 137.307 14.5086C137.143 15.0178 137.087 15.5555 137.143 16.0875C137.143 18.8559 138.941 20.3657 140.924 20.3657C141.458 20.3572 141.984 20.238 142.469 20.0157C142.955 19.7934 143.389 19.4728 143.744 19.0742C144.1 18.6755 144.368 18.2076 144.534 17.6998C144.699 17.192 144.757 16.6555 144.704 16.1241C144.704 13.3924 142.943 11.846 140.924 11.846Z" fill="#383E42"/>
<path d="M153.326 2.88724C153.33 2.48601 153.417 2.08999 153.582 1.72392C153.746 1.35784 153.984 1.02959 154.281 0.759693C154.578 0.489796 154.927 0.284064 155.307 0.15534C155.687 0.0266151 156.09 -0.0223195 156.49 0.0115878C156.887 -0.02419 157.287 0.0230962 157.664 0.150464C158.042 0.277832 158.389 0.482483 158.683 0.751356C158.977 1.02023 159.212 1.34744 159.373 1.71214C159.534 2.07684 159.617 2.47101 159.617 2.86956C159.617 3.26811 159.534 3.66231 159.373 4.027C159.212 4.3917 158.977 4.71891 158.683 4.98778C158.389 5.25666 158.042 5.46129 157.664 5.58866C157.287 5.71603 156.887 5.76333 156.49 5.72755C156.093 5.75985 155.694 5.71094 155.317 5.58382C154.94 5.4567 154.593 5.25403 154.297 4.98819C154.001 4.72236 153.762 4.39895 153.595 4.03772C153.428 3.67649 153.337 3.28501 153.326 2.88724V2.88724ZM153.83 7.52148H159.114V24.7414H153.793L153.83 7.52148Z" fill="#383E42"/>
<path d="M174.788 15.3583C174.788 13.0216 173.494 11.7277 171.48 11.7277C169.467 11.7277 168.173 13.0216 168.173 15.3583V24.7048H162.889V7.48496H168.173V9.78622C168.785 8.99102 169.576 8.35177 170.481 7.92066C171.387 7.48956 172.382 7.27884 173.385 7.30568C177.376 7.30568 180 10.0374 180 14.64V24.706H174.788V15.3583Z" fill="#383E42"/>
</svg>
